<svg xmlns="http://www.w3.org/2000/svg" xmlns:xlink="http://www.w3.org/1999/xlink" width="791px" height="270px" viewBox="0 0 791 270"><title>Group 2</title><g id="Logo-Files" stroke="none" stroke-width="1" fill="none" fill-rule="evenodd"><g id="E-Hospital---Reversed-Out" transform="translate(-108.000000, -368.000000)" fill="#FFFFFF" fill-rule="nonzero"><g id="Group-2" transform="translate(108.090128, 368.248917)"><g id="Group" transform="translate(258.308310, 32.833114)"><path d="M35.6835938,80.9179688 L35.6835938,78.2226562 L34.1601562,78.2226562 C30.5664062,78.2226562 28.1347656,77.7539062 26.8652344,76.8164062 C25.5957031,75.8789062 24.8046875,74.4433594 24.4921875,72.5097656 C24.1796875,70.5761719 24.0234375,66.484375 24.0234375,60.234375 L24.0234375,60.234375 L24.0234375,45.7617188 L29.7070312,40.78125 L52.1484375,63.3984375 C57.8125,69.0625 60.6445312,72.7148438 60.6445312,74.3554688 C60.6445312,75.4492188 60.0976562,76.3671875 59.0039062,77.109375 C57.9101563,77.8515625 55.1367188,78.2226562 50.6835938,78.2226562 L50.6835938,78.2226562 L49.1015625,78.2226562 L49.1015625,80.9179688 L90.3515625,80.9179688 L90.3515625,78.2226562 C86.6796875,78.2226562 83.6914062,77.5 81.3867188,76.0546875 C79.0820312,74.609375 74.53125,70.4296875 67.734375,63.515625 L67.734375,63.515625 L37.96875,33.4570312 L52.4414063,20.0976562 C58.0664063,14.8242188 61.9140625,11.3671875 63.984375,9.7265625 C66.0546875,8.0859375 68.3300781,6.7578125 70.8105469,5.7421875 C73.2910156,4.7265625 75.7617188,4.19921875 78.2226562,4.16015625 L78.2226562,4.16015625 L78.2226562,1.46484375 L48.28125,1.46484375 L48.28125,4.16015625 C53.90625,4.31640625 56.71875,6.015625 56.71875,9.2578125 C56.71875,11.40625 53.90625,15 48.28125,20.0390625 L48.28125,20.0390625 L24.0234375,41.8945312 L24.0234375,21.2695312 C24.0234375,14.6679688 24.2285156,10.4882812 24.6386719,8.73046875 C25.0488281,6.97265625 25.859375,5.77148438 27.0703125,5.12695312 C28.28125,4.48242188 30.8398438,4.16015625 34.7460938,4.16015625 L34.7460938,4.16015625 L36.2109375,4.16015625 L36.2109375,1.46484375 L1.0546875,1.46484375 L1.0546875,4.16015625 C5.5078125,4.16015625 8.33984375,4.47265625 9.55078125,5.09765625 C10.7617188,5.72265625 11.5722656,6.93359375 11.9824219,8.73046875 C12.3925781,10.5273438 12.5976562,14.7070312 12.5976562,21.2695312 L12.5976562,21.2695312 L12.5976562,60.234375 C12.5976562,66.875 12.4121094,71.1035156 12.0410156,72.9199219 C11.6699219,74.7363281 10.8300781,76.0742188 9.52148438,76.9335938 C8.21289062,77.7929688 5.859375,78.2226562 2.4609375,78.2226562 L2.4609375,78.2226562 L0,78.2226562 L0,80.9179688 L35.6835938,80.9179688 Z M124.863281,82.3828125 C132.441406,82.3828125 138.496094,80.2539062 143.027344,75.9960938 C147.558594,71.7382812 149.824219,66.2109375 149.824219,59.4140625 C149.824219,55.1171875 148.886719,51.328125 147.011719,48.046875 C145.136719,44.765625 142.646484,42.1972656 139.541016,40.3417969 C136.435547,38.4863281 131.464844,36.0351562 124.628906,32.9882812 C117.480469,29.7851562 112.539062,26.8945312 109.804688,24.3164062 C107.03125,21.7773438 105.644531,18.671875 105.644531,15 C105.644531,11.953125 106.748047,9.15039062 108.955078,6.59179688 C111.162109,4.03320312 114.628906,2.75390625 119.355469,2.75390625 C124.316406,2.75390625 128.681641,4.4921875 132.451172,7.96875 C136.220703,11.4453125 138.847656,16.2109375 140.332031,22.265625 L140.332031,22.265625 L142.910156,22.265625 L142.910156,1.46484375 L140.332031,1.46484375 C140.097656,3.96484375 139.082031,6.2890625 137.285156,8.4375 C134.160156,5 131.113281,2.734375 128.144531,1.640625 C125.175781,0.546875 122.011719,0 118.652344,0 C112.636719,0 107.666016,1.88476563 103.740234,5.65429687 C99.8144531,9.42382812 97.8515625,14.140625 97.8515625,19.8046875 C97.8515625,23.515625 98.7597656,27.0117188 100.576172,30.2929688 C102.392578,33.5742188 104.921875,36.2402344 108.164062,38.2910156 C111.40625,40.3417969 116.210938,42.734375 122.578125,45.46875 C129.726562,48.515625 134.648438,51.3671875 137.34375,54.0234375 C140.039062,56.71875 141.386719,60.0585938 141.386719,64.0429688 C141.386719,67.9882812 139.853516,71.5527344 136.787109,74.7363281 C133.720703,77.9199219 129.394531,79.5117188 123.808594,79.5117188 C111.386719,79.5117188 103.515625,71.1914062 100.195312,54.5507812 L100.195312,54.5507812 L97.265625,54.5507812 L97.265625,80.0976562 L100.195312,80.0976562 C100.820312,76.7773438 101.777344,74.1992188 103.066406,72.3632812 C108.886719,79.0429688 116.152344,82.3828125 124.863281,82.3828125 Z M179.003906,80.9179688 L179.003906,78.2226562 C176.464844,78.2226562 174.384766,77.6074219 172.763672,76.3769531 C171.142578,75.1464844 170.332031,73.3398438 170.332031,70.9570312 C170.332031,68.7304688 171.855469,63.9648438 174.902344,56.6601562 L174.902344,56.6601562 L176.953125,51.6210938 L207.128906,51.6210938 L213.222656,66.328125 C215.019531,70.5859375 215.917969,73.1445312 215.917969,74.0039062 C215.917969,75.6835938 215.244141,76.8066406 213.896484,77.3730469 C212.548828,77.9394531 209.960938,78.2226562 206.132812,78.2226562 L206.132812,78.2226562 L206.132812,80.9179688 L237.363281,80.9179688 L237.363281,78.2226562 C234.589844,77.9492188 232.509766,77.2753906 231.123047,76.2011719 C229.736328,75.1269531 228.632812,73.6523438 227.8125,71.7773438 L227.8125,71.7773438 L224.179688,63.4570312 L197.636719,0.3515625 L195.351562,0.3515625 L172.265625,55.4882812 C170.585938,59.4335937 169.648438,61.6992188 169.453125,62.2851562 C167.03125,68.4960938 164.960938,72.5683594 163.242188,74.5019531 C161.523438,76.4355469 158.90625,77.6757812 155.390625,78.2226562 L155.390625,78.2226562 L155.390625,80.9179688 L179.003906,80.9179688 Z M206.132812,48.984375 L178.066406,48.984375 L192.070312,15.1171875 L206.132812,48.984375 Z M298.300781,80.9179688 L298.300781,78.2226562 L294.433594,78.2226562 C290.878906,78.2226562 288.457031,77.7539062 287.167969,76.8164062 C285.878906,75.8789062 285.087891,74.4335938 284.794922,72.4804688 C284.501953,70.5273438 284.355469,66.4453125 284.355469,60.234375 L284.355469,60.234375 L284.355469,4.16015625 L297.128906,4.16015625 C301.464844,4.16015625 304.53125,4.42382812 306.328125,4.95117188 C308.125,5.47851562 309.804688,6.90429688 311.367188,9.22851562 C312.929688,11.5527344 314.160156,15.3320312 315.058594,20.5664062 L315.058594,20.5664062 L317.578125,20.5664062 L317.167969,1.46484375 L240.058594,1.46484375 L239.648438,20.5664062 L242.34375,20.5664062 C243.164062,15.5273438 244.345703,11.7773438 245.888672,9.31640625 C247.431641,6.85546875 249.082031,5.38085938 250.839844,4.89257812 C252.597656,4.40429688 256.035156,4.16015625 261.152344,4.16015625 L272.929688,4.16015625 L272.929688,60.234375 C272.929688,66.875 272.744141,71.1035156 272.373047,72.9199219 C272.001953,74.7363281 271.162109,76.0742188 269.853516,76.9335938 C268.544922,77.7929688 266.191406,78.2226562 262.792969,78.2226562 L262.792969,78.2226562 L258.691406,78.2226562 L258.691406,80.9179688 L298.300781,80.9179688 Z M361.40625,80.9179688 L361.40625,78.2226562 L357.597656,78.2226562 C354.003906,78.2226562 351.572266,77.7539062 350.302734,76.8164062 C349.033203,75.8789062 348.251953,74.4433594 347.958984,72.5097656 C347.666016,70.5761719 347.519531,66.484375 347.519531,60.234375 L347.519531,60.234375 L347.519531,42.5976562 L350.683594,42.5976562 C352.832031,42.5976562 354.414062,42.9589844 355.429688,43.6816406 C356.445312,44.4042969 358.300781,46.4160156 360.996094,49.7167969 C363.691406,53.0175781 366.289062,56.4648438 368.789062,60.0585938 C376.601562,71.3085938 382.402344,78.2617188 386.191406,80.9179688 L386.191406,80.9179688 L407.578125,80.9179688 L407.578125,78.2226562 C402.890625,78.0664062 398.828125,76.7382812 395.390625,74.2382812 C391.953125,71.7382812 387.226562,66.4453125 381.210938,58.359375 C373.828125,48.3984375 368.476562,42.6171875 365.15625,41.015625 C372.578125,40.1171875 378.203125,37.8320312 382.03125,34.1601562 C385.859375,30.4882812 387.773438,26.0546875 387.773438,20.859375 C387.773438,16.40625 386.308594,12.578125 383.378906,9.375 C380.449219,6.171875 376.611328,3.8671875 371.865234,2.4609375 C367.119141,1.0546875 360.957031,0.3515625 353.378906,0.3515625 C348.925781,0.3515625 342.910156,0.52734375 335.332031,0.87890625 L335.332031,0.87890625 L323.964844,1.46484375 L323.964844,4.16015625 L325.3125,4.16015625 C329.335938,4.16015625 331.953125,4.51171875 333.164062,5.21484375 C334.375,5.91796875 335.15625,7.1875 335.507812,9.0234375 C335.859375,10.859375 336.035156,14.9414062 336.035156,21.2695312 L336.03481,60.7404347 C336.026026,67.0902611 335.850361,71.1500901 335.507812,72.9199219 C335.15625,74.7363281 334.326172,76.0742188 333.017578,76.9335938 C331.708984,77.7929688 329.355469,78.2226562 325.957031,78.2226562 L325.957031,78.2226562 L323.378906,78.2226562 L323.378906,80.9179688 L361.40625,80.9179688 Z M347.519531,39.9023438 L347.519531,3.57421875 C349.394531,3.41796875 351.054688,3.33984375 352.5,3.33984375 C361.875,3.33984375 367.958984,5.01953125 370.751953,8.37890625 C373.544922,11.7382812 374.941406,16.2109375 374.941406,21.796875 C374.941406,25 374.53125,27.6953125 373.710938,29.8828125 C372.890625,32.0703125 371.767578,33.8378906 370.341797,35.1855469 C368.916016,36.5332031 367.050781,37.5585938 364.746094,38.2617188 C362.441406,38.9648438 359.726562,39.3945312 356.601562,39.5507812 C353.476562,39.7070312 350.449219,39.8242188 347.519531,39.9023438 L347.519531,39.9023438 Z M447.246094,80.9179688 L447.246094,78.2226562 L444.902344,78.2226562 C441.308594,78.2226562 438.876953,77.7539062 437.607422,76.8164062 C436.337891,75.8789062 435.556641,74.4433594 435.263672,72.5097656 C434.970703,70.5761719 434.824219,66.484375 434.824219,60.234375 L434.824219,60.234375 L434.824219,21.2695312 C434.824219,14.6679688 435.029297,10.4882812 435.439453,8.73046875 C435.849609,6.97265625 436.660156,5.77148438 437.871094,5.12695312 C439.082031,4.48242188 441.640625,4.16015625 445.546875,4.16015625 L445.546875,4.16015625 L447.246094,4.16015625 L447.246094,1.46484375 L410.917969,1.46484375 L410.917969,4.16015625 L412.617188,4.16015625 C416.640625,4.16015625 419.257812,4.51171875 420.46875,5.21484375 C421.679688,5.91796875 422.460938,7.1875 422.8125,9.0234375 C423.164062,10.859375 423.339844,14.9414062 423.339844,21.2695312 L423.339844,21.2695312 L423.339844,60.234375 C423.339844,66.875 423.164062,71.1035156 422.8125,72.9199219 C422.460938,74.7363281 421.630859,76.0742188 420.322266,76.9335938 C419.013672,77.7929688 416.660156,78.2226562 413.261719,78.2226562 L413.261719,78.2226562 L410.917969,78.2226562 L410.917969,80.9179688 L447.246094,80.9179688 Z M473.964844,80.9179688 L473.964844,78.2226562 C471.425781,78.2226562 469.345703,77.6074219 467.724609,76.3769531 C466.103516,75.1464844 465.292969,73.3398438 465.292969,70.9570312 C465.292969,68.7304688 466.816406,63.9648438 469.863281,56.6601562 L469.863281,56.6601562 L471.914062,51.6210938 L502.089844,51.6210938 L508.183594,66.328125 C509.980469,70.5859375 510.878906,73.1445312 510.878906,74.0039062 C510.878906,75.6835938 510.205078,76.8066406 508.857422,77.3730469 C507.509766,77.9394531 504.921875,78.2226562 501.09375,78.2226562 L501.09375,78.2226562 L501.09375,80.9179688 L532.324219,80.9179688 L532.324219,78.2226562 C529.550781,77.9492188 527.470703,77.2753906 526.083984,76.2011719 C524.697266,75.1269531 523.59375,73.6523438 522.773438,71.7773438 L522.773438,71.7773438 L519.140625,63.4570312 L492.597656,0.3515625 L490.3125,0.3515625 L467.226562,55.4882812 C465.546875,59.4335937 464.609375,61.6992188 464.414062,62.2851562 C461.992188,68.4960938 459.921875,72.5683594 458.203125,74.5019531 C456.484375,76.4355469 453.867188,77.6757812 450.351562,78.2226562 L450.351562,78.2226562 L450.351562,80.9179688 L473.964844,80.9179688 Z M501.09375,48.984375 L473.027344,48.984375 L487.03125,15.1171875 L501.09375,48.984375 Z" id="KSATRIA"></path><path d="M24.9609375,208.851562 C29.3359375,208.851562 33.3789062,207.728516 37.0898438,205.482422 C40.8007812,203.236328 43.28125,200.121094 44.53125,196.136719 L44.53125,196.136719 L41.71875,196.136719 C38.75,202.503906 33.7109375,205.6875 26.6015625,205.6875 C21.3671875,205.6875 17.4316406,203.568359 14.7949219,199.330078 C12.1582031,195.091797 10.8398438,188.753906 10.8398438,180.316406 C10.8398438,179.183594 10.9179688,177.464844 11.0742188,175.160156 L11.0742188,175.160156 L44.53125,175.160156 C44.3359375,170.707031 42.5195312,166.566406 39.0820312,162.738281 C35.6445312,158.910156 30.78125,156.996094 24.4921875,156.996094 C17.8125,156.996094 12.2460937,159.505859 7.79296875,164.525391 C3.33984375,169.544922 1.11328125,175.84375 1.11328125,183.421875 C1.11328125,188.773438 2.265625,193.324219 4.5703125,197.074219 C6.875,200.824219 9.83398438,203.724609 13.4472656,205.775391 C17.0605469,207.826172 20.8984375,208.851562 24.9609375,208.851562 Z M34.2773438,172.816406 L11.3085938,172.816406 C12.6757812,163.988281 16.9140625,159.574219 24.0234375,159.574219 C26.953125,159.574219 29.4238281,160.521484 31.4355469,162.416016 C33.4472656,164.310547 34.453125,166.976562 34.453125,170.414062 C34.453125,171.117188 34.3945312,171.917969 34.2773438,172.816406 L34.2773438,172.816406 Z M88.59375,206.917969 L88.59375,204.222656 L86.5429688,204.222656 C82.9882812,204.222656 80.5761719,203.753906 79.3066406,202.816406 C78.0371094,201.878906 77.2460938,200.443359 76.9335938,198.509766 C76.6210938,196.576172 76.4648438,192.484375 76.4648438,186.234375 L76.4648438,167.074219 L117.949219,167.074219 L117.948872,186.740435 C117.940089,193.090261 117.764423,197.15009 117.421875,198.919922 C117.070312,200.736328 116.240234,202.074219 114.931641,202.933594 C113.623047,203.792969 111.289062,204.222656 107.929688,204.222656 L107.929688,204.222656 L105.175781,204.222656 L105.175781,206.917969 L141.328125,206.917969 L141.328125,204.222656 L139.511719,204.222656 C135.957031,204.222656 133.535156,203.753906 132.246094,202.816406 C130.957031,201.878906 130.166016,200.443359 129.873047,198.509766 C129.580078,196.576172 129.433594,192.484375 129.433594,186.234375 L129.433998,146.766496 C129.444245,140.455218 129.649189,136.443209 130.048828,134.730469 C130.458984,132.972656 131.269531,131.771484 132.480469,131.126953 C133.691406,130.482422 136.25,130.160156 140.15625,130.160156 L140.15625,130.160156 L141.328125,130.160156 L141.328125,127.464844 L105.175781,127.464844 L105.175781,130.160156 L107.285156,130.160156 C111.308594,130.160156 113.916016,130.511719 115.107422,131.214844 C116.298828,131.917969 117.070312,133.1875 117.421875,135.023438 C117.773438,136.859375 117.949219,140.941406 117.949219,147.269531 L117.949219,163.03125 L76.4648438,163.03125 L76.4652482,146.766496 C76.4754954,140.455218 76.6804387,136.443209 77.0800781,134.730469 C77.4902344,132.972656 78.3007812,131.771484 79.5117188,131.126953 C80.7226562,130.482422 83.2617188,130.160156 87.1289062,130.160156 L87.1289062,130.160156 L88.59375,130.160156 L88.59375,127.464844 L52.8515625,127.464844 L52.8515625,130.160156 L54.3164062,130.160156 C58.3398438,130.160156 60.9472656,130.511719 62.1386719,131.214844 C63.3300781,131.917969 64.1113281,133.1875 64.4824219,135.023438 C64.8535156,136.859375 65.0390625,140.941406 65.0390625,147.269531 L65.0386965,186.740435 C65.0294253,193.090261 64.8440004,197.15009 64.4824219,198.919922 C64.1113281,200.736328 63.2714844,202.074219 61.9628906,202.933594 C60.6542969,203.792969 58.3007812,204.222656 54.9023438,204.222656 L54.9023438,204.222656 L52.8515625,204.222656 L52.8515625,206.917969 L88.59375,206.917969 Z M175.371094,208.851562 C182.441406,208.851562 188.476562,206.537109 193.476562,201.908203 C198.476562,197.279297 200.976562,190.921875 200.976562,182.835938 C200.976562,175.53125 198.515625,169.398438 193.59375,164.4375 C188.671875,159.476562 182.597656,156.996094 175.371094,156.996094 C168.183594,156.996094 162.128906,159.466797 157.207031,164.408203 C152.285156,169.349609 149.824219,175.492188 149.824219,182.835938 C149.824219,190.765625 152.314453,197.083984 157.294922,201.791016 C162.275391,206.498047 168.300781,208.851562 175.371094,208.851562 Z M175.371094,206.15625 C170.371094,206.15625 166.484375,204.447266 163.710938,201.029297 C160.9375,197.611328 159.550781,191.644531 159.550781,183.128906 C159.550781,174.652344 160.908203,168.626953 163.623047,165.052734 C166.337891,161.478516 170.253906,159.691406 175.371094,159.691406 C180.527344,159.691406 184.453125,161.488281 187.148438,165.082031 C189.84375,168.675781 191.191406,174.691406 191.191406,183.128906 C191.191406,191.644531 189.833984,197.611328 187.119141,201.029297 C184.404297,204.447266 180.488281,206.15625 175.371094,206.15625 Z M226.875,208.851562 C231.054688,208.851562 234.521484,207.542969 237.275391,204.925781 C240.029297,202.308594 241.40625,198.910156 241.40625,194.730469 C241.40625,192.074219 240.664062,189.300781 239.179688,186.410156 C237.695312,183.558594 233.632812,180.628906 226.992188,177.621094 C222.578125,175.628906 219.589844,173.851562 218.027344,172.289062 C216.425781,170.765625 215.625,168.949219 215.625,166.839844 C215.625,164.925781 216.347656,163.246094 217.792969,161.800781 C219.238281,160.355469 221.132812,159.632812 223.476562,159.632812 C226.523438,159.632812 229.169922,160.912109 231.416016,163.470703 C233.662109,166.029297 235.175781,169.085938 235.957031,172.640625 L235.957031,172.640625 L238.125,172.640625 L238.125,157.816406 L235.957031,157.816406 C235.019531,160.082031 234.257812,161.507812 233.671875,162.09375 C230.9375,158.695312 227.480469,156.996094 223.300781,156.996094 C219.199219,156.996094 216.015625,158.431641 213.75,161.302734 C211.484375,164.173828 210.351562,167.191406 210.351562,170.355469 C210.351562,173.675781 211.40625,176.46875 213.515625,178.734375 C215.625,181.039062 219.101562,183.382812 223.945312,185.765625 C228.554688,188.03125 231.660156,189.964844 233.261719,191.566406 C234.824219,193.167969 235.605469,195.21875 235.605469,197.71875 C235.605469,199.867188 234.873047,201.839844 233.408203,203.636719 C231.943359,205.433594 229.726562,206.332031 226.757812,206.332031 C219.921875,206.332031 215.175781,201.78125 212.519531,192.679688 L212.519531,192.679688 L210.234375,192.679688 L210.234375,208.441406 L212.519531,208.441406 C213.183594,206.253906 214.042969,204.574219 215.097656,203.402344 C218.535156,207.035156 222.460938,208.851562 226.875,208.851562 Z M270.644531,236.449219 L270.644531,233.753906 C267.871094,233.753906 265.976562,233.451172 264.960938,232.845703 C263.945312,232.240234 263.330078,231.332031 263.115234,230.121094 C262.900391,228.910156 262.792969,225.53125 262.792969,219.984375 L262.792969,201.761719 C265.214844,204.105469 267.783203,205.873047 270.498047,207.064453 C273.212891,208.255859 276.054688,208.851562 279.023438,208.851562 C286.25,208.851562 292.080078,206.332031 296.513672,201.292969 C300.947266,196.253906 303.164062,189.984375 303.164062,182.484375 C303.164062,174.828125 300.957031,168.666016 296.542969,163.998047 C292.128906,159.330078 286.601562,156.996094 279.960938,156.996094 C276.757812,156.996094 273.720703,157.650391 270.849609,158.958984 C267.978516,160.267578 265.292969,162.25 262.792969,164.90625 C262.792969,161.820312 262.460938,159.183594 261.796875,156.996094 L261.796875,156.996094 L260.214844,156.996094 C254.316406,158.558594 249.433594,159.535156 245.566406,159.925781 L245.566406,159.925781 L245.566406,162.621094 L247.324219,162.621094 C249.824219,162.621094 251.5625,162.972656 252.539062,163.675781 C253.515625,164.378906 254.072266,165.394531 254.208984,166.722656 C254.345703,168.050781 254.414062,171.273438 254.414062,176.390625 L254.413895,220.437891 C254.4101,225.518917 254.341797,228.600167 254.208984,229.681641 C254.072266,230.794922 253.583984,231.751953 252.744141,232.552734 C251.904297,233.353516 250.097656,233.753906 247.324219,233.753906 L247.324219,233.753906 L245.566406,233.753906 L245.566406,236.449219 L270.644531,236.449219 Z M276.972656,205.6875 C274.355469,205.6875 271.865234,205.033203 269.501953,203.724609 C267.138672,202.416016 264.902344,200.472656 262.792969,197.894531 L262.792969,197.894531 L262.792969,168.714844 C264.980469,165.941406 267.285156,163.871094 269.707031,162.503906 C272.128906,161.136719 274.6875,160.453125 277.382812,160.453125 C281.757812,160.453125 285.527344,162.230469 288.691406,165.785156 C291.855469,169.339844 293.4375,174.710938 293.4375,181.898438 C293.4375,190.179688 291.796875,196.214844 288.515625,200.003906 C285.234375,203.792969 281.386719,205.6875 276.972656,205.6875 Z M322.03125,138.714844 C323.710938,138.714844 325.136719,138.109375 326.308594,136.898438 C327.480469,135.6875 328.066406,134.222656 328.066406,132.503906 C328.066406,130.824219 327.480469,129.378906 326.308594,128.167969 C325.136719,126.957031 323.710938,126.351562 322.03125,126.351562 C320.351562,126.351562 318.916016,126.957031 317.724609,128.167969 C316.533203,129.378906 315.9375,130.824219 315.9375,132.503906 C315.9375,134.222656 316.533203,135.6875 317.724609,136.898438 C318.916016,138.109375 320.351562,138.714844 322.03125,138.714844 Z M335.625,206.917969 L335.625,204.222656 L334.394531,204.222656 C331.894531,204.222656 330.15625,203.871094 329.179688,203.167969 C328.203125,202.464844 327.636719,201.449219 327.480469,200.121094 C327.324219,198.792969 327.246094,195.570312 327.246094,190.453125 L327.246094,156.996094 L325.957031,156.996094 C322.128906,158.363281 316.738281,159.398438 309.785156,160.101562 L309.785156,160.101562 L309.785156,162.796875 L311.367188,162.796875 C313.554688,162.796875 315.087891,162.953125 315.966797,163.265625 C316.845703,163.578125 317.548828,164.359375 318.076172,165.609375 C318.603516,166.859375 318.867188,170.296875 318.867188,175.921875 L318.86702,190.906641 C318.863225,195.987667 318.794922,199.068917 318.662109,200.150391 C318.525391,201.263672 318.037109,202.220703 317.197266,203.021484 C316.357422,203.822266 314.550781,204.222656 311.777344,204.222656 L311.777344,204.222656 L309.785156,204.222656 L309.785156,206.917969 L335.625,206.917969 Z M360.175781,208.851562 C362.597656,208.851562 364.990234,208.197266 367.353516,206.888672 C369.716797,205.580078 371.503906,203.636719 372.714844,201.058594 L372.714844,201.058594 L370.839844,199.945312 C368.769531,203.148438 366.328125,204.75 363.515625,204.75 C362.070312,204.75 360.712891,204.28125 359.443359,203.34375 C358.173828,202.40625 357.34375,201.166016 356.953125,199.623047 C356.5625,198.080078 356.367188,195.082031 356.367188,190.628906 L356.367188,190.628906 L356.367188,161.625 L370.839844,161.625 L370.839844,158.929688 L356.367188,158.929688 L356.367188,143.871094 L354.492188,143.871094 C353.789062,148.597656 352.167969,152.269531 349.628906,154.886719 C347.089844,157.503906 344.21875,158.851562 341.015625,158.929688 L341.015625,158.929688 L341.015625,161.625 L347.988281,161.625 L347.988281,188.8125 C347.988281,194.398438 348.251953,198.304688 348.779297,200.53125 C349.306641,202.757812 350.634766,204.701172 352.763672,206.361328 C354.892578,208.021484 357.363281,208.851562 360.175781,208.851562 Z M418.066406,208.148438 C424.277344,208.148438 427.558594,204.808594 427.910156,198.128906 L427.910156,198.128906 L425.742188,198.128906 C425.117188,201.957031 423.515625,203.871094 420.9375,203.871094 C419.375,203.871094 418.359375,203.226562 417.890625,201.9375 C417.421875,200.648438 417.1875,197.738281 417.1875,193.207031 L417.1875,193.207031 L417.1875,173.8125 C417.1875,169.710938 416.748047,166.664062 415.869141,164.671875 C414.990234,162.679688 413.183594,160.902344 410.449219,159.339844 C407.714844,157.777344 403.867188,156.996094 398.90625,156.996094 C392.226562,156.996094 387.304688,158.275391 384.140625,160.833984 C380.976562,163.392578 379.394531,165.785156 379.394531,168.011719 C379.394531,170.277344 380.585938,171.410156 382.96875,171.410156 C385.625,171.410156 387.265625,169.417969 387.890625,165.433594 C388.554688,161.527344 391.816406,159.574219 397.675781,159.574219 C400.605469,159.574219 402.96875,160.160156 404.765625,161.332031 C406.5625,162.503906 407.675781,163.832031 408.105469,165.316406 C408.535156,166.800781 408.75,169.203125 408.75,172.523438 L408.75,172.523438 L408.75,174.867188 L399.667969,178.558594 C392.753906,181.410156 387.333984,184.339844 383.408203,187.347656 C379.482422,190.355469 377.519531,193.871094 377.519531,197.894531 C377.519531,200.980469 378.691406,203.460938 381.035156,205.335938 C383.378906,207.210938 386.171875,208.148438 389.414062,208.148438 C391.953125,208.148438 394.833984,207.445312 398.056641,206.039062 C401.279297,204.632812 404.84375,202.542969 408.75,199.769531 C409.21875,202.542969 410.224609,204.632812 411.767578,206.039062 C413.310547,207.445312 415.410156,208.148438 418.066406,208.148438 Z M394.21875,203.871094 C392.148438,203.871094 390.46875,203.119141 389.179688,201.615234 C387.890625,200.111328 387.246094,198.128906 387.246094,195.667969 C387.246094,189.457031 392.285156,184.300781 402.363281,180.199219 L402.363281,180.199219 L408.75,177.621094 L408.75,196.605469 C405.742188,199.027344 403.027344,200.84375 400.605469,202.054688 C398.183594,203.265625 396.054688,203.871094 394.21875,203.871094 Z M456.035156,206.917969 L456.035156,204.222656 L454.628906,204.222656 C452.128906,204.222656 450.390625,203.871094 449.414062,203.167969 C448.4375,202.464844 447.880859,201.449219 447.744141,200.121094 C447.607422,198.792969 447.539062,195.570312 447.539062,190.453125 L447.539062,126.351562 L446.25,126.351562 C445.039062,126.898438 442.822266,127.445312 439.599609,127.992188 C436.376953,128.539062 433.574219,128.8125 431.191406,128.8125 L431.191406,128.8125 L431.191406,131.507812 C434.667969,131.507812 436.855469,132.162109 437.753906,133.470703 C438.652344,134.779297 439.101562,137.953125 439.101562,142.992188 L439.101562,142.992188 L439.101562,190.453125 C439.101562,196 439.003906,199.359375 438.808594,200.53125 C438.613281,201.703125 438.017578,202.611328 437.021484,203.255859 C436.025391,203.900391 434.355469,204.222656 432.011719,204.222656 L432.011719,204.222656 L430.371094,204.222656 L430.371094,206.917969 L456.035156,206.917969 Z" id="eHospital"></path></g><g id="g10" transform="translate(103.050518, 132.396342) scale(-1, 1) rotate(-180.000000) translate(-103.050518, -132.396342) translate(0.000000, 0.000000)"><g id="g26" transform="translate(-0.000000, 0.000000)"><g id="g28-Clipped" transform="translate(0.000000, 0.000000)"><g id="g28" transform="translate(0.000000, 0.000000)"><g id="g34" transform="translate(0.000000, 0.000000)"><path d="M73.9274879,105.916952 C74.049639,103.563242 74.5482061,101.30818 76.9145587,99.2041191 C77.3455528,98.8207759 91.1027114,84.2861837 91.1027114,84.2861837 L90.3559437,76.0810812 L82.8882669,76.0810812 L67.9533465,90.2530983 L67.9533465,92.4908535 L63.4731736,99.9496049 L63.4731736,109.646544 C70.4383849,127.732902 77.887869,145.161606 85.8753377,161.859102 L97.0764197,161.859102 C89.7672794,148.566265 82.8237261,133.511174 76.167791,117.105295 C76.167791,117.105295 73.7680851,108.988457 73.9274879,105.916952 M80.6483971,20.8852827 L66.4602443,20.8852827 L66.4602443,36.5487038 L39.5774742,49.9752351 L39.5774742,60.4176601 L51.5253239,65.6386563 L50.7785562,53.7043944 L80.6483971,40.2782958 L80.6483971,20.8852827 Z M85.8753377,0 L85.8753377,20.8852827 L120.225785,20.8852827 L120.225785,0 L149.348858,0 L149.348858,20.8852827 L165.77688,20.8852827 L165.77688,45.4997247 L206.101036,45.4997247 L206.101036,76.8274323 L179.965033,76.8274323 L179.965033,70.8600851 L154.575798,79.0647549 L154.575798,85.7780205 L162.78981,95.4745271 L165.030113,98.4582007 L165.046276,98.4940907 C165.211767,98.8616287 166.624242,102.000263 168.181083,105.51298 L168.483913,106.196888 C170.257486,110.206091 172.124406,114.495014 172.49779,115.613891 C173.244557,117.851214 173.991325,120.834888 173.991325,123.818561 C173.991325,126.802235 173.244557,130.531394 173.244557,130.531394 C173.244557,130.531394 156.816101,187.965381 156.069334,190.949054 C153.950128,200.121425 147.153784,207.291809 146.425236,208.040186 L146.361787,208.104745 L146.361787,208.104745 L100.810258,243.90753 L91.8494791,243.90753 L91.8494791,225.260003 C91.1200378,225.825932 44.2646975,170.030456 44.8048479,168.572367 C44.9431399,168.198543 44.7277539,167.528914 44.4627237,166.834474 L44.2820186,166.370811 C44.0401695,165.755624 43.8124786,165.168414 43.8124786,164.799509 C43.8124786,163.923357 44.0576471,159.621347 44.0576471,159.621347 L45.5511824,156.638106 C45.5511824,156.638106 46.5043191,156.386524 47.5507569,156.106957 L48.0024358,155.986082 C49.0579834,155.703083 50.0839987,155.424041 50.2206462,155.372554 C50.8218722,155.145836 50.7785562,152.908514 50.7785562,152.908514 L52.2720916,149.178922 L55.2587291,148.433003 L50.7785562,143.957493 L45.5511824,143.957493 L43.3108794,149.178922 C42.843198,149.483559 42.3581643,149.788822 41.8699018,150.0942 L40.9905929,150.643896 C38.5553301,152.170563 36.2511999,153.692467 35.8436358,155.145836 C35.4078769,156.886457 35.3299081,159.333623 35.0968681,161.859102 L34.3501004,163.350939 C33.9437964,164.336987 33.9719518,165.332122 34.3501004,166.334612 C50.2054856,187.591556 65.9166286,207.097063 81.3951647,223.768166 L81.3951647,243.90753 L85.8753377,243.90753 L85.8753377,264.79238 L56.0054968,264.79238 L56.0054968,243.90753 L23.1490184,243.90753 L23.1490184,213.325741 L8.6631982e-05,213.325741 L8.6631982e-05,179.760278 L23.1490184,179.760278 L23.1490184,143.957493 L8.6631982e-05,143.957493 L8.6631982e-05,111.138381 L23.1490184,111.138381 L23.1490184,76.8274323 L8.6631982e-05,76.8274323 L8.6631982e-05,46.2452104 L23.1490184,46.2452104 L23.1490184,20.8852827 L56.0054968,20.8852827 L56.0054968,0 L85.8753377,0 Z M23.1489317,243.9074 L23.1489317,264.792683 L1.01186679e-13,264.792683 L1.01186679e-13,243.9074 L23.1489317,243.9074 Z M149.348771,243.9074 L149.348771,264.792683 L120.225698,264.792683 L120.225698,243.9074 L149.348771,243.9074 Z M206.100949,243.9074 L206.100949,264.792683 L179.964947,264.792683 L179.964947,243.9074 L206.100949,243.9074 Z M206.100949,179.760581 L206.100949,213.326044 L179.964947,213.326044 L179.964947,179.760581 L206.100949,179.760581 Z M206.100949,110.392333 L206.100949,143.957796 L179.964947,143.957796 L179.964947,110.392333 L206.100949,110.392333 Z M23.1489317,0.000302867102 L23.1489317,20.8855855 L-6.56611348e-17,20.8855855 L-6.56611348e-17,0.000302867102 L23.1489317,0.000302867102 Z M206.100949,0.000302867102 L206.100949,20.8855855 L179.964947,20.8855855 L179.964947,0.000302867102 L206.100949,0.000302867102 Z" id="path36"></path></g></g></g></g></g></g></g></g></svg>