<svg xmlns="http://www.w3.org/2000/svg" xmlns:xlink="http://www.w3.org/1999/xlink" width="800px" height="286px" viewBox="0 0 800 286"><title>KMS</title><defs><polygon id="path-1" points="0 286 800 286 800 0 0 0"></polygon></defs><g id="Logo-Files" stroke="none" stroke-width="1" fill="none" fill-rule="evenodd"><g id="Main-Logo" transform="translate(-100.000000, -357.000000)"><g id="Group" transform="translate(100.000000, 357.000000)"><g id="g10" transform="translate(400.000000, 143.000000) scale(-1, 1) rotate(-180.000000) translate(-400.000000, -143.000000) "><polygon id="path12" fill="#952526" fill-rule="nonzero" points="31.2390593 253.865801 8.09012758 253.865801 8.09012758 274.751083 31.2390593 274.751083"></polygon><polygon id="path14" fill="#952526" fill-rule="nonzero" points="31.2390593 9.95870297 8.09012758 9.95870297 8.09012758 30.8439856 31.2390593 30.8439856"></polygon><polygon id="path16" fill="#952526" fill-rule="nonzero" points="214.191077 9.95870297 188.055074 9.95870297 188.055074 30.8439856 214.191077 30.8439856"></polygon><polygon id="path18" fill="#952526" fill-rule="nonzero" points="214.191077 120.350733 188.055074 120.350733 188.055074 153.916196 214.191077 153.916196"></polygon><polygon id="path20" fill="#952526" fill-rule="nonzero" points="214.191077 189.718981 188.055074 189.718981 188.055074 223.284444 214.191077 223.284444"></polygon><polygon id="path22" fill="#952526" fill-rule="nonzero" points="214.191077 253.865801 188.055074 253.865801 188.055074 274.751083 214.191077 274.751083"></polygon><polygon id="path24" fill="#952526" fill-rule="nonzero" points="157.438899 253.865801 128.315826 253.865801 128.315826 274.751083 157.438899 274.751083"></polygon><g id="g28-Clipped"><mask id="mask-2" fill="white"><use xlink:href="#path-1"></use></mask><g id="path30"></g><g id="g28" mask="url(#mask-2)"><g transform="translate(8.090214, 9.958400)" id="g34"><g transform="translate(0.000000, 0.000000)"><path d="M73.9274013,105.916952 C74.0495524,103.563242 74.5481195,101.30818 76.914472,99.2041191 C77.3454661,98.8207759 91.1026248,84.2861837 91.1026248,84.2861837 L90.3558571,76.0810812 L82.8881803,76.0810812 L67.9532599,90.2530983 L67.9532599,92.4908535 L63.473087,99.9496049 L63.473087,109.646544 C70.4382983,127.732902 77.8877823,145.161606 85.875251,161.859102 L97.0763331,161.859102 C89.7671928,148.566265 82.8236395,133.511174 76.1677044,117.105295 C76.1677044,117.105295 73.7679985,108.988457 73.9274013,105.916952 M80.6483104,20.8852827 L66.4601577,20.8852827 L66.4601577,36.5487038 L39.5773875,49.9752351 L39.5773875,60.4176601 L51.5252372,65.6386563 L50.7784696,53.7043944 L80.6483104,40.2782958 L80.6483104,20.8852827 Z M179.964947,76.8274323 L179.964947,70.8600851 L154.575712,79.0647549 L154.575712,85.7780205 L162.789723,95.4745271 L165.030026,98.4582007 C165.030026,98.4582007 171.750935,113.376136 172.497703,115.613891 C173.244471,117.851214 173.991238,120.834888 173.991238,123.818561 C173.991238,126.802235 173.244471,130.531394 173.244471,130.531394 C173.244471,130.531394 156.816015,187.965381 156.069247,190.949054 C153.828944,200.645561 146.3617,208.104745 146.3617,208.104745 L100.810171,243.90753 L91.8493925,243.90753 L91.8493925,225.260003 C91.1199512,225.825932 44.2646109,170.030456 44.8047613,168.572367 C45.0967111,167.783182 43.8123919,165.67566 43.8123919,164.799509 C43.8123919,163.923357 44.0575605,159.621347 44.0575605,159.621347 L45.5510958,156.638106 C45.5510958,156.638106 49.9277435,155.482884 50.2205596,155.372554 C50.8217856,155.145836 50.7784696,152.908514 50.7784696,152.908514 L52.2720049,149.178922 L55.2586425,148.433003 L50.7784696,143.957493 L45.5510958,143.957493 L43.3107928,149.178922 C40.2240953,151.189526 36.3815337,153.227389 35.8435491,155.145836 C35.4077903,156.886457 35.3298215,159.333623 35.0967815,161.859102 L34.3500138,163.350939 C33.9437098,164.336987 33.9718652,165.332122 34.3500138,166.334612 C50.205399,187.591556 65.916542,207.097063 81.3950781,223.768166 L81.3950781,243.90753 L85.875251,243.90753 L85.875251,264.79238 L56.0054102,264.79238 L56.0054102,243.90753 L23.1489317,243.90753 L23.1489317,213.325741 L1.95693464e-13,213.325741 L1.95693464e-13,179.760278 L23.1489317,179.760278 L23.1489317,143.957493 L1.95693464e-13,143.957493 L1.95693464e-13,111.138381 L23.1489317,111.138381 L23.1489317,76.8274323 L1.95693464e-13,76.8274323 L1.95693464e-13,46.2452104 L23.1489317,46.2452104 L23.1489317,20.8852827 L56.0054102,20.8852827 L56.0054102,0 L85.875251,0 L85.875251,20.8852827 L120.225698,20.8852827 L120.225698,0 L149.348771,0 L149.348771,20.8852827 L165.776794,20.8852827 L165.776794,45.4997247 L179.964947,45.4997247 L206.100949,45.4997247 L206.100949,76.8274323 L179.964947,76.8274323 Z" id="path36" fill="#952526" fill-rule="nonzero"></path></g></g></g></g></g><path d="M338.164062,221 L338.164062,215.609375 L335.117188,215.609375 C327.929688,215.609375 323.066406,214.671875 320.527344,212.796875 C317.988281,210.921875 316.40625,208.050781 315.78125,204.183594 C315.15625,200.316406 314.84375,192.132812 314.84375,179.632812 L314.84375,179.632812 L314.84375,150.6875 L326.210938,140.726562 L371.09375,185.960938 C382.421875,197.289062 388.085938,204.59375 388.085938,207.875 C388.085938,210.0625 386.992188,211.898438 384.804688,213.382812 C382.617188,214.867188 377.070312,215.609375 368.164062,215.609375 L368.164062,215.609375 L365,215.609375 L365,221 L447.5,221 L447.5,215.609375 C440.15625,215.609375 434.179688,214.164062 429.570312,211.273438 C424.960938,208.382812 415.859375,200.023438 402.265625,186.195312 L402.265625,186.195312 L342.734375,126.078125 L371.679688,99.359375 C382.929688,88.8125 390.625,81.8984375 394.765625,78.6171875 C398.90625,75.3359375 403.457031,72.6796875 408.417969,70.6484375 C413.378906,68.6171875 418.320312,67.5625 423.242188,67.484375 L423.242188,67.484375 L423.242188,62.09375 L363.359375,62.09375 L363.359375,67.484375 C374.609375,67.796875 380.234375,71.1953125 380.234375,77.6796875 C380.234375,81.9765625 374.609375,89.1640625 363.359375,99.2421875 L363.359375,99.2421875 L314.84375,142.953125 L314.84375,101.703125 C314.84375,88.5 315.253906,80.140625 316.074219,76.625 C316.894531,73.109375 318.515625,70.7070312 320.9375,69.4179688 C323.359375,68.1289062 328.476562,67.484375 336.289062,67.484375 L336.289062,67.484375 L339.21875,67.484375 L339.21875,62.09375 L268.90625,62.09375 L268.90625,67.484375 C277.8125,67.484375 283.476562,68.109375 285.898438,69.359375 C288.320312,70.609375 289.941406,73.03125 290.761719,76.625 C291.582031,80.21875 291.992188,88.578125 291.992188,101.703125 L291.992188,101.703125 L291.992188,179.632812 C291.992188,192.914062 291.621094,201.371094 290.878906,205.003906 C290.136719,208.636719 288.457031,211.3125 285.839844,213.03125 C283.222656,214.75 278.515625,215.609375 271.71875,215.609375 L271.71875,215.609375 L266.796875,215.609375 L266.796875,221 L338.164062,221 Z M509.023438,221 L509.023438,215.609375 C501.679688,215.140625 495.976562,213.167969 491.914062,209.691406 C487.851562,206.214844 485.429688,202.171875 484.648438,197.5625 C483.867188,192.953125 483.476562,184.28125 483.476562,171.546875 L483.476562,78.5 L546.875,221 L552.382812,221 L615.3125,78.5 L615.312191,180.292855 C615.300027,193.194623 614.929036,201.431641 614.199219,205.003906 C613.457031,208.636719 611.777344,211.3125 609.160156,213.03125 C606.542969,214.75 601.875,215.609375 595.15625,215.609375 L595.15625,215.609375 L589.53125,215.609375 L589.53125,221 L665.46875,221 L665.46875,215.609375 L658.4375,215.609375 C651.25,215.609375 646.386719,214.671875 643.847656,212.796875 C641.308594,210.921875 639.726562,208.050781 639.101562,204.183594 C638.476562,200.316406 638.164062,192.132812 638.164062,179.632812 L638.164404,101.047005 C638.177848,88.2226997 638.587891,80.0820312 639.394531,76.625 C640.214844,73.109375 641.835938,70.7070312 644.257812,69.4179688 C646.679688,68.1289062 651.796875,67.484375 659.609375,67.484375 L659.609375,67.484375 L665.46875,67.484375 L665.46875,62.09375 L616.71875,62.09375 L558.828125,193.578125 L500.585938,62.09375 L452.1875,62.09375 L452.1875,67.484375 L456.523438,67.484375 C464.570312,67.484375 469.785156,68.1875 472.167969,69.59375 C474.550781,71 476.113281,73.5390625 476.855469,77.2109375 C477.597656,80.8828125 477.96875,89.046875 477.96875,101.703125 L477.968302,171.542914 C477.951859,184.2883 477.483259,193.039621 476.5625,197.796875 C475.625,202.640625 473.027344,206.722656 468.769531,210.042969 C464.511719,213.363281 458.984375,215.21875 452.1875,215.609375 L452.1875,215.609375 L452.1875,221 L509.023438,221 Z M739.0625,223.929688 C754.21875,223.929688 766.328125,219.671875 775.390625,211.15625 C784.453125,202.640625 788.984375,191.585938 788.984375,177.992188 C788.984375,169.398438 787.109375,161.820312 783.359375,155.257812 C779.609375,148.695312 774.628906,143.558594 768.417969,139.847656 C762.207031,136.136719 752.265625,131.234375 738.59375,125.140625 C724.296875,118.734375 714.414062,112.953125 708.945312,107.796875 C703.398438,102.71875 700.625,96.5078125 700.625,89.1640625 C700.625,83.0703125 702.832031,77.4648438 707.246094,72.3476562 C711.660156,67.2304688 718.59375,64.671875 728.046875,64.671875 C737.96875,64.671875 746.699219,68.1484375 754.238281,75.1015625 C761.777344,82.0546875 767.03125,91.5859375 770,103.695312 L770,103.695312 L775.15625,103.695312 L775.15625,62.09375 L770,62.09375 C769.53125,67.09375 767.5,71.7421875 763.90625,76.0390625 C757.65625,69.1640625 751.5625,64.6328125 745.625,62.4453125 C739.6875,60.2578125 733.359375,59.1640625 726.640625,59.1640625 C714.609375,59.1640625 704.667969,62.9335938 696.816406,70.4726562 C688.964844,78.0117188 685.039062,87.4453125 685.039062,98.7734375 C685.039062,106.195312 686.855469,113.1875 690.488281,119.75 C694.121094,126.3125 699.179688,131.644531 705.664062,135.746094 C712.148438,139.847656 721.757812,144.632812 734.492188,150.101562 C748.789062,156.195312 758.632812,161.898438 764.023438,167.210938 C769.414062,172.601562 772.109375,179.28125 772.109375,187.25 C772.109375,195.140625 769.042969,202.269531 762.910156,208.636719 C756.777344,215.003906 748.125,218.1875 736.953125,218.1875 C712.109375,218.1875 696.367188,201.546875 689.726562,168.265625 L689.726562,168.265625 L683.867188,168.265625 L683.867188,219.359375 L689.726562,219.359375 C690.976562,212.71875 692.890625,207.5625 695.46875,203.890625 C707.109375,217.25 721.640625,223.929688 739.0625,223.929688 Z" id="KMS" fill="#000000" fill-rule="nonzero"></path></g></g></g></svg>